<svg xmlns="http://www.w3.org/2000/svg" viewBox="0 0 213.41 142.1"><defs><style>.cls-1{fill:#5d18dc;}</style></defs><title>brand</title><g id="Layer_2" data-name="Layer 2"><g id="Layer_3" data-name="Layer 3"><g id="brand"><path class="cls-1" d="M97.06,78h14.33V69.52H94.59a3.44,3.44,0,0,0-3,2.06c-1.59-1.38-2.6-2.06-3-2.06h-18V78H84.63c1.1,0,1.65.93,1.65,2.8H73.68a3.11,3.11,0,0,0-2.1.82,2.63,2.63,0,0,0-1,2.06V107.8c0,1.76.91,2.64,2.72,2.64h28.49v3.26H72.77v8.9h38.62V83.68q0-2.88-2.64-2.88H95.33a5.84,5.84,0,0,1,.29-2.19C95.81,78.2,96.29,78,97.06,78Zm3,11.61c1.09,0,1.64.46,1.64,1.4v8.64c0,1.32-.55,2-1.64,2H81.66c-1,0-1.48-.69-1.48-2.06V91c0-.94.63-1.4,1.9-1.4Z"/><path class="cls-1" d="M143.33,87.83h-12.5q-2.52,0-2.52,1.71V109.3c0,1.21,1,1.82,3,1.82h17.34c1.28,0,1.92-.67,1.92-2V73.61q0-3-4.34-3H115.91V58.9h39.92a7.46,7.46,0,0,1,4.64,1.61A5.09,5.09,0,0,1,163,64.84v52.83a4.35,4.35,0,0,1-1.26,2.92,3.5,3.5,0,0,1-2.57,1.41H120a4.67,4.67,0,0,1-2.82-1,2.94,2.94,0,0,1-1.31-2.47V81.18a5.71,5.71,0,0,1,1.46-3.68,4.15,4.15,0,0,1,3.18-1.77h22.78Z"/><path class="cls-1" d="M183,71.9q3.33,0,3.33,4.54v41.73c0,2.56-1.38,3.83-4.14,3.83h-14V111.22h4.74c.81,0,1.31-.24,1.51-.71a6.74,6.74,0,0,0,.2-2.22V84c0-1.14-.6-1.72-1.81-1.72h-4.64V71.9Z"/><path class="cls-1" d="M186.52,0H26.89A26.91,26.91,0,0,0,0,26.88v88.33A26.92,26.92,0,0,0,26.89,142.1H186.52c.35,0,11.7,0,12,0l-11-11c-.35,0-.7,0-1,0H26.89a15.9,15.9,0,0,1-14.06-8.5H65.9V107.41a2.92,2.92,0,0,0,0-.51V84.75q0-4-3.54-4H50c0-1.86.58-2.79,1.73-2.79H65.86V69.44H61.17L68,57.25H58L51.12,69.44H49.23c-1.92,0-2.94.68-3,2-.27-1.37-1.32-2-3.13-2H25.19v8.48H39.51q1.32,0,1.32,2.79H29q-3.8,0-3.79,4.53v21.82a3,3,0,0,0,1.19,2.39,3.64,3.64,0,0,0,2.27,1h27.7v3.26H11V26.88A15.9,15.9,0,0,1,26.89,11H186.52a15.9,15.9,0,0,1,15.89,15.88v85.9a5.5,5.5,0,1,0,11,0V26.88A26.92,26.92,0,0,0,186.52,0ZM54.42,101.54H36.22c-.93,0-1.4-.68-1.4-2.05V91.34c0-1.21.71-1.82,2.14-1.82h17.7c1.15,0,1.73.66,1.73,2v8.15C56.39,100.91,55.73,101.54,54.42,101.54Z"/><path class="cls-1" d="M50.28,34.57H40.83V28.25a11.44,11.44,0,0,0-.3-3.44,1.32,1.32,0,0,0-1.34-.68,1.4,1.4,0,0,0-1.48.83,12.65,12.65,0,0,0-.31,3.59V45.43a11.74,11.74,0,0,0,.31,3.45,1.34,1.34,0,0,0,1.41.81,1.32,1.32,0,0,0,1.38-.81,13,13,0,0,0,.33-3.8V40.51h9.45v1.42a27.92,27.92,0,0,1-.8,8A8.2,8.2,0,0,1,46,54.07a12.1,12.1,0,0,1-6.72,1.77,14,14,0,0,1-6.85-1.5,7.34,7.34,0,0,1-3.57-4.17,27.46,27.46,0,0,1-.87-8V31.56a47.05,47.05,0,0,1,.27-5.89,8.31,8.31,0,0,1,1.6-3.79A9,9,0,0,1,33.52,19,13.52,13.52,0,0,1,39,18a13.38,13.38,0,0,1,6.89,1.61,7.77,7.77,0,0,1,3.57,4,24.4,24.4,0,0,1,.85,7.49Z"/><path class="cls-1" d="M99.37,8.74V55.08H89.93V39.82H81.1V55.08H71.65V18.74H81.1v13h8.83v-23Z"/><path class="cls-1" d="M137.48,18.74l5.41,36.34h-9.66l-.51-6.53h-3.38l-.57,6.53H119l4.82-36.34Zm-5,23.37q-.72-6.18-1.44-15.27-1.46,10.44-1.82,15.27Z"/><path class="cls-1" d="M184,18.74V26h-5.61V55.08h-9.45V26h-5.59V18.74Z"/></g></g></g></svg>